<?xml version="1.0" encoding="UTF-8" standalone="no"?><!DOCTYPE svg PUBLIC "-//W3C//DTD SVG 1.1//EN" "http://www.w3.org/Graphics/SVG/1.1/DTD/svg11.dtd"><svg width="100%" height="100%" viewBox="0 0 288 288" version="1.1" xmlns="http://www.w3.org/2000/svg" xmlns:xlink="http://www.w3.org/1999/xlink" xml:space="preserve" xmlns:serif="http://www.serif.com/" style="fill-rule:evenodd;clip-rule:evenodd;stroke-linecap:round;stroke-linejoin:round;stroke-miterlimit:1.5;"><g><g><g><path d="M123.932,89.093c-10.73,-6.85 -17.224,-18.701 -17.224,-31.431c0,-20.582 16.71,-37.292 37.292,-37.292c20.582,0 37.292,16.71 37.292,37.292c0,12.73 -6.494,24.581 -17.224,31.431c-1.541,0.984 -2.97,2.132 -4.263,3.425c-9.845,9.845 -9.845,25.832 0,35.677c9.845,9.845 25.832,9.845 35.677,0c1.293,-1.293 2.441,-2.722 3.425,-4.263c6.85,-10.73 18.701,-17.224 31.431,-17.224c20.582,0 37.292,16.71 37.292,37.292c0,20.582 -16.71,37.292 -37.292,37.292c-12.73,0 -24.581,-6.494 -31.431,-17.224c-0.984,-1.541 -2.132,-2.97 -3.425,-4.263c-9.845,-9.845 -25.832,-9.845 -35.677,0c-9.845,9.845 -9.845,25.832 0,35.677c1.293,1.293 2.722,2.441 4.263,3.425c10.73,6.85 17.224,18.701 17.224,31.431c0,20.582 -16.71,37.292 -37.292,37.292c-20.582,0 -37.292,-16.71 -37.292,-37.292c0,-12.73 6.494,-24.581 17.224,-31.431c1.541,-0.984 2.97,-2.132 4.263,-3.425c9.845,-9.845 9.845,-25.832 0,-35.677c-9.845,-9.845 -25.832,-9.845 -35.677,0c-1.293,1.293 -2.441,2.722 -3.425,4.263c-6.85,10.73 -18.701,17.224 -31.431,17.224c-20.582,0 -37.292,-16.71 -37.292,-37.292c0,-20.582 16.71,-37.292 37.292,-37.292c12.73,0 24.581,6.494 31.431,17.224c0.984,1.541 2.132,2.97 3.425,4.263c9.845,9.845 25.832,9.845 35.677,0c9.845,-9.845 9.845,-25.832 0,-35.677c-1.293,-1.293 -2.722,-2.441 -4.263,-3.425Z"/><path d="M124.873,61.258c-3.741,-4.481 -5.791,-10.133 -5.791,-15.971c0,-13.752 11.166,-24.917 24.918,-24.917c13.752,0 24.918,11.165 24.918,24.917c0,5.838 -2.05,11.49 -5.791,15.971l-7.635,9.143c-1.192,1.428 -2.161,3.029 -2.873,4.748c-3.883,9.375 0.575,20.139 9.95,24.022c9.375,3.883 20.138,-0.575 24.022,-9.95c0.712,-1.719 1.159,-3.536 1.325,-5.389l1.067,-11.864c0.523,-5.814 3.07,-11.26 7.198,-15.388c9.724,-9.724 25.514,-9.724 35.239,0c9.724,9.725 9.724,25.515 0,35.239c-4.128,4.128 -9.574,6.675 -15.388,7.198l-11.864,1.067c-1.853,0.166 -3.67,0.613 -5.389,1.325c-9.375,3.884 -13.833,14.647 -9.95,24.022c3.883,9.375 14.647,13.833 24.022,9.95c1.719,-0.712 3.32,-1.681 4.748,-2.873l9.143,-7.635c4.481,-3.741 10.133,-5.791 15.971,-5.791c13.752,0 24.917,11.166 24.917,24.918c0,13.752 -11.165,24.918 -24.917,24.918c-5.838,0 -11.49,-2.05 -15.971,-5.791l-9.143,-7.635c-1.428,-1.192 -3.029,-2.161 -4.748,-2.873c-9.375,-3.883 -20.139,0.575 -24.022,9.95c-3.883,9.375 0.575,20.138 9.95,24.022c1.719,0.712 3.536,1.159 5.389,1.325l11.864,1.067c5.814,0.523 11.26,3.07 15.388,7.198c9.724,9.724 9.724,25.514 0,35.239c-9.725,9.724 -25.515,9.724 -35.239,0c-4.128,-4.128 -6.675,-9.574 -7.198,-15.388l-1.067,-11.864c-0.166,-1.853 -0.613,-3.67 -1.325,-5.389c-3.884,-9.375 -14.647,-13.833 -24.022,-9.95c-9.375,3.883 -13.833,14.647 -9.95,24.022c0.712,1.719 1.681,3.32 2.873,4.748l7.635,9.143c3.741,4.481 5.791,10.133 5.791,15.971c0,13.752 -11.166,24.917 -24.918,24.917c-13.752,0 -24.918,-11.165 -24.918,-24.917c0,-5.838 2.05,-11.49 5.791,-15.971l7.635,-9.143c1.192,-1.428 2.161,-3.029 2.873,-4.748c3.883,-9.375 -0.575,-20.139 -9.95,-24.022c-9.375,-3.883 -20.138,0.575 -24.022,9.95c-0.712,1.719 -1.159,3.536 -1.325,5.389l-1.067,11.864c-0.523,5.814 -3.07,11.26 -7.198,15.388c-9.724,9.724 -25.514,9.724 -35.239,0c-9.724,-9.725 -9.724,-25.515 0,-35.239c4.128,-4.128 9.574,-6.675 15.388,-7.198l11.864,-1.067c1.853,-0.166 3.67,-0.613 5.389,-1.325c9.375,-3.884 13.833,-14.647 9.95,-24.022c-3.883,-9.375 -14.647,-13.833 -24.022,-9.95c-1.719,0.712 -3.32,1.681 -4.748,2.873l-9.143,7.635c-4.481,3.741 -10.133,5.791 -15.971,5.791c-13.752,0 -24.917,-11.166 -24.917,-24.918c0,-13.752 11.165,-24.918 24.917,-24.918c5.838,0 11.49,2.05 15.971,5.791l9.143,7.635c1.428,1.192 3.029,2.161 4.748,2.873c9.375,3.883 20.139,-0.575 24.022,-9.95c3.883,-9.375 -0.575,-20.138 -9.95,-24.022c-1.719,-0.712 -3.536,-1.159 -5.389,-1.325l-11.864,-1.067c-5.814,-0.523 -11.26,-3.07 -15.388,-7.198c-9.724,-9.724 -9.724,-25.514 0,-35.239c9.725,-9.724 25.515,-9.724 35.239,0c4.128,4.128 6.675,9.574 7.198,15.388l1.067,11.864c0.166,1.853 0.613,3.67 1.325,5.389c3.884,9.375 14.647,13.833 24.022,9.95c9.375,-3.883 13.833,-14.647 9.95,-24.022c-0.712,-1.719 -1.681,-3.32 -2.873,-4.748l-7.635,-9.143Z"/><g><g><g><circle cx="144" cy="144" r="43.899" style="fill:#fff;"/><circle cx="144" cy="144" r="41.467"/></g><g><circle cx="144" cy="144" r="43.899" style="fill:#fff;"/><circle cx="144" cy="144" r="41.467"/></g><g><circle cx="144" cy="144" r="35.387" style="fill:#fff;"/><circle cx="144" cy="144" r="33.426"/></g><g><circle cx="144" cy="144" r="24.645" style="fill:#fff;"/><circle cx="144" cy="144" r="23.28"/></g></g><g><path d="M121.598,144c5.601,3.696 13.711,6.697 22.402,6.697c8.691,0 16.801,-3.001 22.402,-6.697c-5.601,-3.696 -13.711,-6.697 -22.402,-6.697c-8.691,0 -16.801,3.001 -22.402,6.697Z" style="fill:#fff;"/><ellipse cx="144" cy="144" rx="7.839" ry="9.443"/><ellipse cx="144" cy="144" rx="5.261" ry="6.338" style="fill:#fff;"/></g></g><g><g><g><g><path d="M228.642,89.467c-8.309,8.308 -21.8,8.308 -30.109,0c-8.308,-8.309 -8.308,-21.8 0,-30.109c8.309,-8.308 21.8,-8.308 30.109,0c8.308,8.309 8.308,21.8 0,30.109Z" style="fill:#fff;"/><path d="M227.808,88.633c-7.849,7.848 -20.592,7.848 -28.441,0c-7.848,-7.849 -7.848,-20.592 0,-28.441c7.849,-7.848 20.592,-7.848 28.441,0c7.848,7.849 7.848,20.592 0,28.441Z"/></g><g><path d="M228.642,89.467c-8.309,8.308 -21.8,8.308 -30.109,0c-8.308,-8.309 -8.308,-21.8 0,-30.109c8.309,-8.308 21.8,-8.308 30.109,0c8.308,8.309 8.308,21.8 0,30.109Z" style="fill:#fff;"/><path d="M227.808,88.633c-7.849,7.848 -20.592,7.848 -28.441,0c-7.848,-7.849 -7.848,-20.592 0,-28.441c7.849,-7.848 20.592,-7.848 28.441,0c7.848,7.849 7.848,20.592 0,28.441Z"/></g><g><path d="M225.723,86.547c-6.698,6.698 -17.573,6.698 -24.27,0c-6.698,-6.697 -6.698,-17.572 0,-24.27c6.697,-6.697 17.572,-6.697 24.27,0c6.697,6.698 6.697,17.573 0,24.27Z" style="fill:#fff;"/><path d="M225.05,85.875c-6.326,6.327 -16.599,6.327 -22.925,0c-6.327,-6.326 -6.327,-16.599 0,-22.925c6.326,-6.327 16.599,-6.327 22.925,0c6.327,6.326 6.327,16.599 0,22.925Z"/></g><g><path d="M222.039,82.864c-4.664,4.664 -12.238,4.664 -16.903,0c-4.664,-4.665 -4.664,-12.239 0,-16.903c4.665,-4.665 12.239,-4.665 16.903,0c4.665,4.664 4.665,12.238 0,16.903Z" style="fill:#fff;"/><path d="M221.571,82.396c-4.406,4.406 -11.561,4.406 -15.967,0c-4.406,-4.406 -4.406,-11.561 0,-15.967c4.406,-4.406 11.561,-4.406 15.967,0c4.406,4.406 4.406,11.561 0,15.967Z"/></g></g><g><path d="M221.27,66.73c-3.188,0.653 -6.998,2.405 -9.979,5.386c-2.981,2.98 -4.733,6.791 -5.386,9.979c3.188,-0.653 6.999,-2.405 9.979,-5.386c2.981,-2.981 4.733,-6.791 5.386,-9.979Z" style="fill:#fff;"/><path d="M216.826,77.651c-1.484,1.483 -4.139,1.237 -5.927,-0.55c-1.787,-1.788 -2.033,-4.443 -0.55,-5.927c1.484,-1.484 4.14,-1.237 5.927,0.55c1.787,1.787 2.034,4.443 0.55,5.927Z"/><path d="M215.761,76.586c-0.996,0.996 -2.778,0.83 -3.978,-0.369c-1.199,-1.2 -1.365,-2.982 -0.369,-3.978c0.996,-0.996 2.778,-0.83 3.978,0.369c1.199,1.2 1.365,2.982 0.369,3.978Z" style="fill:#fff;"/></g></g><g><g><g><path d="M198.533,228.642c-8.308,-8.309 -8.308,-21.8 0,-30.109c8.309,-8.308 21.8,-8.308 30.109,0c8.308,8.309 8.308,21.8 0,30.109c-8.309,8.308 -21.8,8.308 -30.109,0Z" style="fill:#fff;"/><path d="M199.367,227.808c-7.848,-7.849 -7.848,-20.592 0,-28.441c7.849,-7.848 20.592,-7.848 28.441,0c7.848,7.849 7.848,20.592 0,28.441c-7.849,7.848 -20.592,7.848 -28.441,0Z"/></g><g><path d="M198.533,228.642c-8.308,-8.309 -8.308,-21.8 0,-30.109c8.309,-8.308 21.8,-8.308 30.109,0c8.308,8.309 8.308,21.8 0,30.109c-8.309,8.308 -21.8,8.308 -30.109,0Z" style="fill:#fff;"/><path d="M199.367,227.808c-7.848,-7.849 -7.848,-20.592 0,-28.441c7.849,-7.848 20.592,-7.848 28.441,0c7.848,7.849 7.848,20.592 0,28.441c-7.849,7.848 -20.592,7.848 -28.441,0Z"/></g><g><path d="M201.453,225.723c-6.698,-6.698 -6.698,-17.573 0,-24.27c6.697,-6.698 17.572,-6.698 24.27,0c6.697,6.697 6.697,17.572 0,24.27c-6.698,6.697 -17.573,6.697 -24.27,0Z" style="fill:#fff;"/><path d="M202.125,225.05c-6.327,-6.326 -6.327,-16.599 0,-22.925c6.326,-6.327 16.599,-6.327 22.925,0c6.327,6.326 6.327,16.599 0,22.925c-6.326,6.327 -16.599,6.327 -22.925,0Z"/></g><g><path d="M205.136,222.039c-4.664,-4.664 -4.664,-12.238 0,-16.903c4.665,-4.664 12.239,-4.664 16.903,0c4.665,4.665 4.665,12.239 0,16.903c-4.664,4.665 -12.238,4.665 -16.903,0Z" style="fill:#fff;"/><path d="M205.604,221.571c-4.406,-4.406 -4.406,-11.561 0,-15.967c4.406,-4.406 11.561,-4.406 15.967,0c4.406,4.406 4.406,11.561 0,15.967c-4.406,4.406 -11.561,4.406 -15.967,0Z"/></g></g><g><path d="M221.27,221.27c-0.653,-3.188 -2.405,-6.998 -5.386,-9.979c-2.98,-2.981 -6.791,-4.733 -9.979,-5.386c0.653,3.188 2.405,6.999 5.386,9.979c2.981,2.981 6.791,4.733 9.979,5.386Z" style="fill:#fff;"/><path d="M210.349,216.826c-1.483,-1.484 -1.237,-4.139 0.55,-5.927c1.788,-1.787 4.443,-2.033 5.927,-0.55c1.484,1.484 1.237,4.14 -0.55,5.927c-1.787,1.787 -4.443,2.034 -5.927,0.55Z"/><path d="M211.414,215.761c-0.996,-0.996 -0.83,-2.778 0.369,-3.978c1.2,-1.199 2.982,-1.365 3.978,-0.369c0.996,0.996 0.83,2.778 -0.369,3.978c-1.2,1.199 -2.982,1.365 -3.978,0.369Z" style="fill:#fff;"/></g></g><g><g><g><path d="M59.358,198.533c8.309,-8.308 21.8,-8.308 30.109,0c8.308,8.309 8.308,21.8 0,30.109c-8.309,8.308 -21.8,8.308 -30.109,0c-8.308,-8.309 -8.308,-21.8 0,-30.109Z" style="fill:#fff;"/><path d="M60.192,199.367c7.849,-7.848 20.592,-7.848 28.441,0c7.848,7.849 7.848,20.592 0,28.441c-7.849,7.848 -20.592,7.848 -28.441,0c-7.848,-7.849 -7.848,-20.592 0,-28.441Z"/></g><g><path d="M59.358,198.533c8.309,-8.308 21.8,-8.308 30.109,0c8.308,8.309 8.308,21.8 0,30.109c-8.309,8.308 -21.8,8.308 -30.109,0c-8.308,-8.309 -8.308,-21.8 0,-30.109Z" style="fill:#fff;"/><path d="M60.192,199.367c7.849,-7.848 20.592,-7.848 28.441,0c7.848,7.849 7.848,20.592 0,28.441c-7.849,7.848 -20.592,7.848 -28.441,0c-7.848,-7.849 -7.848,-20.592 0,-28.441Z"/></g><g><path d="M62.277,201.453c6.698,-6.698 17.573,-6.698 24.27,0c6.698,6.697 6.698,17.572 0,24.27c-6.697,6.697 -17.572,6.697 -24.27,0c-6.697,-6.698 -6.697,-17.573 0,-24.27Z" style="fill:#fff;"/><path d="M62.95,202.125c6.326,-6.327 16.599,-6.327 22.925,0c6.327,6.326 6.327,16.599 0,22.925c-6.326,6.327 -16.599,6.327 -22.925,0c-6.327,-6.326 -6.327,-16.599 0,-22.925Z"/></g><g><path d="M65.961,205.136c4.664,-4.664 12.238,-4.664 16.903,0c4.664,4.665 4.664,12.239 0,16.903c-4.665,4.665 -12.239,4.665 -16.903,0c-4.665,-4.664 -4.665,-12.238 0,-16.903Z" style="fill:#fff;"/><path d="M66.429,205.604c4.406,-4.406 11.561,-4.406 15.967,0c4.406,4.406 4.406,11.561 0,15.967c-4.406,4.406 -11.561,4.406 -15.967,0c-4.406,-4.406 -4.406,-11.561 0,-15.967Z"/></g></g><g><path d="M66.73,221.27c3.188,-0.653 6.998,-2.405 9.979,-5.386c2.981,-2.98 4.733,-6.791 5.386,-9.979c-3.188,0.653 -6.999,2.405 -9.979,5.386c-2.981,2.981 -4.733,6.791 -5.386,9.979Z" style="fill:#fff;"/><path d="M71.174,210.349c1.484,-1.483 4.139,-1.237 5.927,0.55c1.787,1.788 2.033,4.443 0.55,5.927c-1.484,1.484 -4.14,1.237 -5.927,-0.55c-1.787,-1.787 -2.034,-4.443 -0.55,-5.927Z"/><path d="M72.239,211.414c0.996,-0.996 2.778,-0.83 3.978,0.369c1.199,1.2 1.365,2.982 0.369,3.978c-0.996,0.996 -2.778,0.83 -3.978,-0.369c-1.199,-1.2 -1.365,-2.982 -0.369,-3.978Z" style="fill:#fff;"/></g></g><g><g><g><path d="M89.467,59.358c8.308,8.309 8.308,21.8 0,30.109c-8.309,8.308 -21.8,8.308 -30.109,0c-8.308,-8.309 -8.308,-21.8 0,-30.109c8.309,-8.308 21.8,-8.308 30.109,0Z" style="fill:#fff;"/><path d="M88.633,60.192c7.848,7.849 7.848,20.592 0,28.441c-7.849,7.848 -20.592,7.848 -28.441,0c-7.848,-7.849 -7.848,-20.592 0,-28.441c7.849,-7.848 20.592,-7.848 28.441,0Z"/></g><g><path d="M89.467,59.358c8.308,8.309 8.308,21.8 0,30.109c-8.309,8.308 -21.8,8.308 -30.109,0c-8.308,-8.309 -8.308,-21.8 0,-30.109c8.309,-8.308 21.8,-8.308 30.109,0Z" style="fill:#fff;"/><path d="M88.633,60.192c7.848,7.849 7.848,20.592 0,28.441c-7.849,7.848 -20.592,7.848 -28.441,0c-7.848,-7.849 -7.848,-20.592 0,-28.441c7.849,-7.848 20.592,-7.848 28.441,0Z"/></g><g><path d="M86.547,62.277c6.698,6.698 6.698,17.573 0,24.27c-6.697,6.698 -17.572,6.698 -24.27,0c-6.697,-6.697 -6.697,-17.572 0,-24.27c6.698,-6.697 17.573,-6.697 24.27,0Z" style="fill:#fff;"/><path d="M85.875,62.95c6.327,6.326 6.327,16.599 0,22.925c-6.326,6.327 -16.599,6.327 -22.925,0c-6.327,-6.326 -6.327,-16.599 0,-22.925c6.326,-6.327 16.599,-6.327 22.925,0Z"/></g><g><path d="M82.864,65.961c4.664,4.664 4.664,12.238 0,16.903c-4.665,4.664 -12.239,4.664 -16.903,0c-4.665,-4.665 -4.665,-12.239 0,-16.903c4.664,-4.665 12.238,-4.665 16.903,0Z" style="fill:#fff;"/><path d="M82.396,66.429c4.406,4.406 4.406,11.561 0,15.967c-4.406,4.406 -11.561,4.406 -15.967,0c-4.406,-4.406 -4.406,-11.561 0,-15.967c4.406,-4.406 11.561,-4.406 15.967,0Z"/></g></g><g><path d="M66.73,66.73c0.653,3.188 2.405,6.998 5.386,9.979c2.98,2.981 6.791,4.733 9.979,5.386c-0.653,-3.188 -2.405,-6.999 -5.386,-9.979c-2.981,-2.981 -6.791,-4.733 -9.979,-5.386Z" style="fill:#fff;"/><path d="M77.651,71.174c1.483,1.484 1.237,4.139 -0.55,5.927c-1.788,1.787 -4.443,2.033 -5.927,0.55c-1.484,-1.484 -1.237,-4.14 0.55,-5.927c1.787,-1.787 4.443,-2.034 5.927,-0.55Z"/><path d="M76.586,72.239c0.996,0.996 0.83,2.778 -0.369,3.978c-1.2,1.199 -2.982,1.365 -3.978,0.369c-0.996,-0.996 -0.83,-2.778 0.369,-3.978c1.2,-1.199 2.982,-1.365 3.978,-0.369Z" style="fill:#fff;"/></g></g></g><g><g><g><circle cx="144" cy="57.418" r="31.434" style="fill:#fff;"/><circle cx="144" cy="57.418" r="29.693"/></g><g><circle cx="144" cy="57.418" r="31.434" style="fill:#fff;"/><circle cx="144" cy="57.418" r="29.693"/></g><g><circle cx="144" cy="57.418" r="25.339" style="fill:#fff;"/><circle cx="144" cy="57.418" r="23.935"/></g><g><circle cx="144" cy="57.418" r="17.647" style="fill:#fff;"/><circle cx="144" cy="57.418" r="16.67"/></g></g><g><g><circle cx="144" cy="230.582" r="31.434" style="fill:#fff;"/><circle cx="144" cy="230.582" r="29.693"/></g><g><circle cx="144" cy="230.582" r="31.434" style="fill:#fff;"/><circle cx="144" cy="230.582" r="29.693"/></g><g><circle cx="144" cy="230.582" r="25.339" style="fill:#fff;"/><circle cx="144" cy="230.582" r="23.935"/></g><g><circle cx="144" cy="230.582" r="17.647" style="fill:#fff;"/><circle cx="144" cy="230.582" r="16.67"/></g></g><g><g><path d="M25.984,144c0,-17.349 14.085,-31.434 31.434,-31.434c17.35,0 31.435,14.085 31.435,31.434c0,17.349 -14.085,31.434 -31.435,31.434c-17.349,0 -31.434,-14.085 -31.434,-31.434Z" style="fill:#fff;"/><path d="M27.725,144c0,-16.388 13.305,-29.693 29.693,-29.693c16.388,0 29.693,13.305 29.693,29.693c0,16.388 -13.305,29.693 -29.693,29.693c-16.388,0 -29.693,-13.305 -29.693,-29.693Z"/></g><g><path d="M25.984,144c0,-17.349 14.085,-31.434 31.434,-31.434c17.35,0 31.435,14.085 31.435,31.434c0,17.349 -14.085,31.434 -31.435,31.434c-17.349,0 -31.434,-14.085 -31.434,-31.434Z" style="fill:#fff;"/><path d="M27.725,144c0,-16.388 13.305,-29.693 29.693,-29.693c16.388,0 29.693,13.305 29.693,29.693c0,16.388 -13.305,29.693 -29.693,29.693c-16.388,0 -29.693,-13.305 -29.693,-29.693Z"/></g><g><path d="M32.079,144c0,-13.985 11.354,-25.339 25.339,-25.339c13.985,0 25.34,11.354 25.34,25.339c0,13.985 -11.355,25.339 -25.34,25.339c-13.985,0 -25.339,-11.354 -25.339,-25.339Z" style="fill:#fff;"/><path d="M33.483,144c0,-13.21 10.725,-23.935 23.935,-23.935c13.211,0 23.936,10.725 23.936,23.935c0,13.21 -10.725,23.935 -23.936,23.935c-13.21,0 -23.935,-10.725 -23.935,-23.935Z"/></g><g><path d="M39.771,144c0,-9.74 7.908,-17.647 17.647,-17.647c9.74,0 17.648,7.907 17.648,17.647c0,9.74 -7.908,17.647 -17.648,17.647c-9.739,0 -17.647,-7.907 -17.647,-17.647Z" style="fill:#fff;"/><path d="M40.749,144c0,-9.2 7.469,-16.67 16.669,-16.67c9.201,0 16.67,7.47 16.67,16.67c0,9.2 -7.469,16.67 -16.67,16.67c-9.2,0 -16.669,-7.47 -16.669,-16.67Z"/></g></g><g><g><path d="M262.016,144.11c-0.061,17.349 -14.195,31.385 -31.544,31.324c-17.35,-0.06 -31.385,-14.195 -31.325,-31.544c0.061,-17.349 14.196,-31.385 31.545,-31.324c17.349,0.06 31.385,14.195 31.324,31.544Z" style="fill:#fff;"/><path d="M260.274,144.104c-0.057,16.388 -13.408,29.646 -29.796,29.589c-16.388,-0.058 -29.647,-13.409 -29.589,-29.797c0.057,-16.388 13.409,-29.646 29.797,-29.589c16.387,0.058 29.646,13.409 29.588,29.797Z"/></g><g><path d="M262.016,144.11c-0.061,17.349 -14.195,31.385 -31.544,31.324c-17.35,-0.06 -31.385,-14.195 -31.325,-31.544c0.061,-17.349 14.196,-31.385 31.545,-31.324c17.349,0.06 31.385,14.195 31.324,31.544Z" style="fill:#fff;"/><path d="M260.274,144.104c-0.057,16.388 -13.408,29.646 -29.796,29.589c-16.388,-0.058 -29.647,-13.409 -29.589,-29.797c0.057,-16.388 13.409,-29.646 29.797,-29.589c16.387,0.058 29.646,13.409 29.588,29.797Z"/></g><g><path d="M255.921,144.089c-0.049,13.985 -11.443,25.299 -25.428,25.25c-13.985,-0.049 -25.299,-11.443 -25.25,-25.428c0.049,-13.985 11.442,-25.299 25.427,-25.25c13.985,0.049 25.3,11.443 25.251,25.428Z" style="fill:#fff;"/><path d="M254.517,144.084c-0.046,13.21 -10.809,23.897 -24.019,23.851c-13.21,-0.046 -23.898,-10.809 -23.852,-24.019c0.047,-13.21 10.809,-23.897 24.019,-23.851c13.211,0.046 23.898,10.809 23.852,24.019Z"/></g></g></g></g><g><g><path d="M235.607,124.075c-3.298,-0.832 -6.752,-0.832 -10.051,0l0.846,3.356c-0.162,0.041 -0.324,0.085 -0.485,0.13l-0.945,-3.329c-3.273,0.929 -6.264,2.656 -8.705,5.026l2.411,2.483c-0.12,0.116 -0.239,0.235 -0.356,0.355l-2.483,-2.411c-2.37,2.441 -4.097,5.432 -5.026,8.705l3.33,0.945c-0.046,0.161 -0.089,0.323 -0.13,0.486l-3.356,-0.847c-0.832,3.299 -0.832,6.753 0,10.052l3.356,-0.847c0.041,0.163 0.084,0.325 0.13,0.486l-3.33,0.945c0.929,3.273 2.656,6.264 5.026,8.705l2.483,-2.411c0.117,0.12 0.236,0.239 0.356,0.355l-2.411,2.483c2.441,2.37 5.432,4.097 8.705,5.026l0.945,-3.329c0.161,0.045 0.323,0.089 0.485,0.13l-0.846,3.356c3.299,0.832 6.753,0.832 10.051,0l-0.846,-3.356c0.162,-0.041 0.324,-0.085 0.486,-0.13l0.944,3.329c3.273,-0.929 6.265,-2.656 8.705,-5.026l-2.411,-2.483c0.121,-0.116 0.239,-0.235 0.356,-0.355l2.483,2.411c2.37,-2.441 4.097,-5.432 5.026,-8.705l-3.33,-0.945c0.046,-0.161 0.089,-0.323 0.13,-0.486l3.356,0.847c0.832,-3.299 0.832,-6.753 0,-10.052l-3.356,0.847c-0.041,-0.163 -0.084,-0.325 -0.13,-0.486l3.33,-0.945c-0.929,-3.273 -2.656,-6.264 -5.026,-8.705l-2.483,2.411c-0.117,-0.12 -0.235,-0.239 -0.356,-0.355l2.411,-2.483c-2.44,-2.37 -5.432,-4.097 -8.705,-5.026l-0.944,3.329c-0.162,-0.045 -0.324,-0.089 -0.486,-0.13l0.846,-3.356Zm-5.025,15.815c2.268,0 4.109,1.842 4.109,4.11c0,2.268 -1.841,4.11 -4.109,4.11c-2.269,0 -4.11,-1.842 -4.11,-4.11c0,-2.268 1.841,-4.11 4.11,-4.11Z" style="stroke:#fff;stroke-width:1.08px;"/><g><path d="M247.251,144.058c-0.032,9.201 -7.528,16.644 -16.728,16.612c-9.2,-0.033 -16.643,-7.528 -16.611,-16.728c0.032,-9.201 7.528,-16.644 16.728,-16.612c9.2,0.033 16.643,7.528 16.611,16.728Z"/></g></g><g><path d="M163.942,235.537c0.821,-3.302 0.809,-6.756 -0.035,-10.052l-3.353,0.859c-0.041,-0.163 -0.085,-0.324 -0.132,-0.485l3.326,-0.957c-0.94,-3.27 -2.677,-6.255 -5.056,-8.687l-2.474,2.419c-0.118,-0.119 -0.237,-0.238 -0.357,-0.354l2.402,-2.491c-2.449,-2.362 -5.446,-4.078 -8.722,-4.996l-0.934,3.333c-0.161,-0.045 -0.323,-0.088 -0.486,-0.128l0.835,-3.359c-3.302,-0.821 -6.756,-0.808 -10.052,0.035l0.859,3.353c-0.163,0.042 -0.324,0.085 -0.486,0.132l-0.956,-3.326c-3.27,0.94 -6.255,2.677 -8.687,5.056l2.419,2.475c-0.12,0.117 -0.238,0.236 -0.354,0.356l-2.491,-2.402c-2.362,2.449 -4.078,5.446 -4.996,8.723l3.333,0.933c-0.045,0.161 -0.088,0.323 -0.128,0.486l-3.359,-0.835c-0.821,3.302 -0.809,6.756 0.035,10.052l3.353,-0.859c0.041,0.163 0.085,0.325 0.132,0.486l-3.326,0.956c0.94,3.27 2.677,6.255 5.056,8.687l2.474,-2.419c0.118,0.12 0.237,0.238 0.357,0.354l-2.402,2.491c2.449,2.362 5.446,4.078 8.722,4.996l0.934,-3.333c0.161,0.045 0.323,0.088 0.486,0.128l-0.835,3.359c3.302,0.821 6.756,0.809 10.052,-0.035l-0.859,-3.353c0.163,-0.041 0.324,-0.085 0.486,-0.132l0.956,3.326c3.27,-0.94 6.255,-2.677 8.687,-5.056l-2.419,-2.474c0.12,-0.118 0.238,-0.236 0.354,-0.357l2.491,2.402c2.362,-2.449 4.078,-5.446 4.996,-8.722l-3.333,-0.934c0.045,-0.161 0.088,-0.323 0.128,-0.486l3.359,0.835Zm-15.832,-4.97c0.008,2.268 -1.827,4.116 -4.096,4.124c-2.268,0.008 -4.116,-1.827 -4.124,-4.096c-0.008,-2.268 1.827,-4.116 4.096,-4.124c2.268,-0.008 4.116,1.827 4.124,4.096Z" style="stroke:#fff;stroke-width:1.08px;"/><g><circle cx="144" cy="230.581" r="16.67"/></g></g><g><path d="M52.534,163.959c3.305,0.809 6.759,0.785 10.052,-0.07l-0.87,-3.35c0.162,-0.042 0.324,-0.086 0.484,-0.133l0.969,3.322c3.266,-0.951 6.245,-2.699 8.669,-5.086l-2.428,-2.466c0.119,-0.118 0.237,-0.237 0.353,-0.358l2.5,2.393c2.353,-2.457 4.059,-5.46 4.964,-8.74l-3.336,-0.921c0.045,-0.162 0.087,-0.324 0.127,-0.487l3.362,0.823c0.809,-3.304 0.785,-6.758 -0.071,-10.051l-3.349,0.87c-0.042,-0.163 -0.087,-0.324 -0.134,-0.485l3.323,-0.968c-0.952,-3.267 -2.7,-6.246 -5.087,-8.67l-2.466,2.429c-0.117,-0.12 -0.237,-0.238 -0.358,-0.353l2.394,-2.5c-2.458,-2.353 -5.461,-4.059 -8.74,-4.965l-0.922,3.336c-0.161,-0.045 -0.323,-0.087 -0.486,-0.127l0.823,-3.361c-3.305,-0.809 -6.759,-0.785 -10.052,0.07l0.87,3.35c-0.162,0.042 -0.324,0.086 -0.484,0.133l-0.969,-3.322c-3.266,0.951 -6.245,2.699 -8.669,5.086l2.428,2.466c-0.119,0.118 -0.237,0.237 -0.353,0.358l-2.5,-2.393c-2.353,2.457 -4.059,5.46 -4.964,8.74l3.336,0.921c-0.045,0.162 -0.087,0.324 -0.127,0.487l-3.362,-0.823c-0.809,3.304 -0.785,6.758 0.071,10.051l3.349,-0.87c0.042,0.163 0.087,0.324 0.134,0.485l-3.323,0.968c0.952,3.267 2.7,6.246 5.087,8.67l2.466,-2.429c0.117,0.12 0.237,0.238 0.358,0.353l-2.394,2.5c2.458,2.353 5.461,4.059 8.74,4.965l0.922,-3.336c0.161,0.045 0.324,0.087 0.486,0.127l-0.823,3.361Zm4.915,-15.849c-2.268,0.016 -4.122,-1.813 -4.138,-4.081c-0.016,-2.268 1.813,-4.123 4.081,-4.139c2.268,-0.016 4.122,1.813 4.138,4.081c0.016,2.268 -1.813,4.123 -4.081,4.139Z" style="stroke:#fff;stroke-width:1.08px;"/><g><path d="M40.751,144.058c-0.032,-9.2 7.411,-16.695 16.611,-16.728c9.2,-0.032 16.696,7.411 16.728,16.612c0.032,9.2 -7.411,16.695 -16.611,16.728c-9.2,0.032 -16.696,-7.411 -16.728,-16.612Z"/></g></g><g><path d="M124.024,52.607c-0.798,3.307 -0.761,6.761 0.105,10.051l3.347,-0.882c0.043,0.162 0.088,0.324 0.135,0.485l-3.319,0.979c0.963,3.263 2.721,6.236 5.117,8.652l2.457,-2.437c0.118,0.119 0.238,0.236 0.36,0.352l-2.385,2.508c2.465,2.344 5.475,4.04 8.757,4.934l0.91,-3.339c0.162,0.044 0.324,0.086 0.487,0.125l-0.811,3.364c3.307,0.798 6.761,0.762 10.051,-0.105l-0.882,-3.347c0.162,-0.043 0.324,-0.088 0.484,-0.135l0.98,3.319c3.263,-0.963 6.236,-2.721 8.652,-5.117l-2.437,-2.457c0.119,-0.118 0.236,-0.238 0.352,-0.359l2.508,2.384c2.344,-2.465 4.04,-5.474 4.934,-8.757l-3.339,-0.91c0.044,-0.162 0.086,-0.324 0.125,-0.487l3.364,0.811c0.798,-3.307 0.761,-6.761 -0.105,-10.051l-3.347,0.882c-0.043,-0.162 -0.088,-0.324 -0.135,-0.484l3.319,-0.98c-0.963,-3.263 -2.721,-6.236 -5.117,-8.652l-2.457,2.437c-0.118,-0.119 -0.238,-0.236 -0.36,-0.352l2.385,-2.508c-2.465,-2.344 -5.475,-4.039 -8.757,-4.934l-0.91,3.339c-0.162,-0.044 -0.324,-0.085 -0.487,-0.125l0.811,-3.364c-3.307,-0.798 -6.761,-0.761 -10.051,0.105l0.882,3.347c-0.162,0.043 -0.324,0.088 -0.484,0.135l-0.98,-3.319c-3.263,0.963 -6.236,2.721 -8.652,5.117l2.437,2.458c-0.119,0.118 -0.236,0.237 -0.352,0.359l-2.508,-2.385c-2.344,2.466 -4.04,5.475 -4.934,8.757l3.339,0.91c-0.044,0.162 -0.086,0.324 -0.125,0.487l-3.364,-0.811Zm15.866,4.859c-0.023,-2.268 1.799,-4.129 4.067,-4.152c2.268,-0.024 4.129,1.798 4.153,4.066c0.023,2.268 -1.799,4.129 -4.067,4.153c-2.268,0.024 -4.129,-1.799 -4.153,-4.067Z" style="stroke:#fff;stroke-width:1.08px;"/><g><path d="M143.883,40.754c9.2,-0.065 16.722,7.352 16.786,16.552c0.065,9.2 -7.352,16.722 -16.552,16.786c-9.2,0.065 -16.722,-7.352 -16.786,-16.552c-0.065,-9.2 7.352,-16.722 16.552,-16.786Z"/></g></g></g></g></g></svg>